<svg data-v-423bf9ae="" xmlns="http://www.w3.org/2000/svg" viewBox="0 0 372.5739320920044 163" class="iconAbove"><!----><!----><!----><g data-v-423bf9ae="" id="c8199d37-ab01-4c84-b083-3feac6c7548f" fill="white" transform="matrix(5.60788631439209,0,0,5.60788631439209,-0.7886104583740234,102.78093719482422)"><path d="M2.84 2.48L1.79 2.24L1.19 3.72L0.14 4.05L0.28 4.82L1.08 4.82L1.08 8.75C1.08 9.81 1.82 10.64 3.22 10.64C4.10 10.64 4.69 10.26 5.24 9.70L4.63 8.96C4.26 9.37 3.79 9.63 3.44 9.63C3.19 9.63 2.84 9.34 2.84 8.86L2.84 4.82L4.52 4.82L4.69 3.96L2.84 3.96ZM6.19 5.74L7.13 5.91L7.43 4.84C7.70 4.77 8.13 4.69 8.47 4.69C9.09 4.69 9.66 5.08 9.66 5.88L9.66 6.37C7.90 6.37 5.67 6.80 5.67 8.71C5.67 9.98 6.78 10.65 8.04 10.65C8.85 10.65 9.42 10.47 9.84 10.18L10.26 10.50L12.04 10.50L12.21 9.65L11.42 9.34L11.42 6.44C11.42 4.75 10.35 3.81 8.54 3.81C7.84 3.81 7 3.99 6.19 4.40ZM9.66 9.07C9.42 9.42 8.93 9.63 8.55 9.63C8.16 9.63 7.59 9.38 7.59 8.58C7.59 7.78 8.36 7.24 9.66 7.24ZM15.51 4.96C15.85 4.86 16.27 4.82 16.51 4.82C17.29 4.82 17.91 5.31 17.91 6.93C17.91 8.61 17.14 9.63 16.13 9.63C15.74 9.63 15.36 9.56 15.06 9.45L15.06 0.25L14.25 0.04L12.38 0.25L12.53 1.05L13.31 1.05L13.31 9.93C14.11 10.42 15.05 10.65 16.21 10.65C18.48 10.65 19.80 9.23 19.80 7.08C19.80 4.84 18.73 3.81 16.62 3.81C16.34 3.81 15.85 3.85 15.51 3.95ZM23.65 9.34L23.65 0.25L22.82 0.04L21 0.25L21.15 1.05L21.88 1.05L21.88 9.34L20.92 9.65L21.08 10.50L24.44 10.50L24.61 9.65ZM28.39 9.34L28.39 3.96L27.54 3.81L25.83 3.96L25.98 4.82L26.63 4.82L26.63 9.34L25.73 9.65L25.90 10.50L29.12 10.50L29.29 9.65ZM27.40 0.74C26.91 0.74 26.49 1.15 26.49 1.65C26.49 2.14 26.91 2.56 27.40 2.56C27.90 2.56 28.31 2.14 28.31 1.65C28.31 1.15 27.90 0.74 27.40 0.74ZM34.23 4.69C34.50 4.69 35 4.75 35.29 4.86L35.59 5.91L36.53 5.74L36.53 4.40C35.71 3.99 34.87 3.81 34.20 3.81C31.99 3.81 30.41 5.08 30.41 7.24C30.41 9.30 31.65 10.65 34.17 10.65C35.10 10.65 36.05 10.33 36.74 9.70L36.26 8.99C35.64 9.41 34.86 9.63 34.24 9.63C32.82 9.63 32.33 8.44 32.33 6.97C32.33 5.54 33.10 4.69 34.23 4.69ZM38.00 5.74L38.93 5.91L39.24 4.84C39.51 4.77 39.94 4.69 40.28 4.69C40.89 4.69 41.47 5.08 41.47 5.88L41.47 6.37C39.70 6.37 37.48 6.80 37.48 8.71C37.48 9.98 38.58 10.65 39.84 10.65C40.66 10.65 41.23 10.47 41.65 10.18L42.07 10.50L43.85 10.50L44.02 9.65L43.23 9.34L43.23 6.44C43.23 4.75 42.15 3.81 40.35 3.81C39.65 3.81 38.81 3.99 38.00 4.40ZM41.47 9.07C41.23 9.42 40.74 9.63 40.36 9.63C39.97 9.63 39.40 9.38 39.40 8.58C39.40 7.78 40.17 7.24 41.47 7.24ZM45.79 8.82C45.28 8.82 44.84 9.25 44.84 9.77C44.84 10.30 45.28 10.74 45.79 10.74C46.33 10.74 46.76 10.30 46.76 9.77C46.76 9.25 46.33 8.82 45.79 8.82ZM50.64 4.96C50.97 4.86 51.39 4.82 51.63 4.82C52.42 4.82 53.03 5.31 53.03 6.93C53.03 8.61 52.26 9.63 51.25 9.63C50.86 9.63 50.48 9.56 50.19 9.45L50.19 0.25L49.38 0.04L47.50 0.25L47.66 1.05L48.44 1.05L48.44 9.93C49.24 10.42 50.18 10.65 51.34 10.65C53.61 10.65 54.92 9.23 54.92 7.08C54.92 4.84 53.86 3.81 51.74 3.81C51.46 3.81 50.97 3.85 50.64 3.95ZM58.70 9.34L58.70 3.96L57.85 3.81L56.14 3.96L56.29 4.82L56.94 4.82L56.94 9.34L56.04 9.65L56.21 10.50L59.43 10.50L59.60 9.65ZM57.71 0.74C57.22 0.74 56.80 1.15 56.80 1.65C56.80 2.14 57.22 2.56 57.71 2.56C58.21 2.56 58.62 2.14 58.62 1.65C58.62 1.15 58.21 0.74 57.71 0.74ZM60.91 3.96L60.91 5.74L61.85 5.91L62.19 4.82L65.06 4.82L64.06 5.33L60.51 9.65L60.93 10.50L66.37 10.50L66.37 8.41L65.44 8.23L65.00 9.65L61.87 9.65L62.90 9.17L66.58 4.82L65.90 3.96Z"></path></g><!----><g data-v-423bf9ae="" id="9af70d8c-3244-45ab-a92b-680fd10afb77" transform="matrix(1,0,0,1,137,-5)" stroke="none" fill="white"><path d="M5 95h90V5H5v90zm60-85h25v25H65V10zm0 27.5h25v25H65v-25zM65 65h25v25H65V65zM37.5 10h25v25h-25V10zm0 27.5h25v25h-25v-25zm0 27.5h25v25h-25V65zM10 10h25v25H10V10zm0 27.5h25v25H10v-25zM10 65h25v25H10V65z"></path><path d="M13.8 13.8h17.5v2.5H13.8zM13.8 18.8h17.5v2.5H13.8zM13.8 23.8h17.5v2.5H13.8zM13.8 28.8h12.5v2.5H13.8zM41.3 13.8h17.5v2.5H41.3zM41.3 18.8h17.5v2.5H41.3zM41.3 23.8h17.5v2.5H41.3zM41.3 28.8h12.5v2.5H41.3zM68.8 13.8h17.5v2.5H68.8zM68.8 18.8h17.5v2.5H68.8zM68.8 23.8h17.5v2.5H68.8zM68.8 28.8h12.5v2.5H68.8zM68.8 41.3h17.5v2.5H68.8zM68.8 46.3h17.5v2.5H68.8zM68.8 51.3h17.5v2.5H68.8zM68.8 56.3h12.5v2.5H68.8zM41.3 41.3h17.5v2.5H41.3zM41.3 46.3h17.5v2.5H41.3zM41.3 51.3h17.5v2.5H41.3zM41.3 56.3h12.5v2.5H41.3zM13.8 41.3h17.5v2.5H13.8zM13.8 46.3h17.5v2.5H13.8zM13.8 51.3h17.5v2.5H13.8zM13.8 56.3h12.5v2.5H13.8zM13.8 68.8h17.5v2.5H13.8zM13.8 73.8h17.5v2.5H13.8zM13.8 78.8h17.5v2.5H13.8zM13.8 83.8h12.5v2.5H13.8zM41.3 68.8h17.5v2.5H41.3zM41.3 73.8h17.5v2.5H41.3zM41.3 78.8h17.5v2.5H41.3zM41.3 83.8h12.5v2.5H41.3zM68.8 68.8h17.5v2.5H68.8zM68.8 73.8h17.5v2.5H68.8zM68.8 78.8h17.5v2.5H68.8zM68.8 83.8h12.5v2.5H68.8z"></path></g><!----></svg>